<?xml version="1.0" standalone="no"?>
<!DOCTYPE svg PUBLIC "-//W3C//DTD SVG 20010904//EN"
 "http://www.w3.org/TR/2001/REC-SVG-20010904/DTD/svg10.dtd">
<svg version="1.0" xmlns="http://www.w3.org/2000/svg"
 width="1364.000000pt" height="1364.000000pt" viewBox="0 0 1364.000000 1364.000000"
 preserveAspectRatio="xMidYMid meet">
<metadata>
Created by potrace 1.14, written by Peter Selinger 2001-2017
</metadata>
<g transform="translate(0.000000,1364.000000) scale(0.100000,-0.100000)"
fill="#000000" stroke="none">
<path d="M823 9473 c2 -2293 6 -4181 9 -4198 4 -16 9 -64 12 -105 4 -41 9 -88
11 -105 3 -16 7 -52 11 -80 16 -145 64 -404 105 -570 16 -66 32 -127 34 -136
30 -129 168 -535 232 -679 8 -19 21 -48 28 -65 7 -16 29 -65 49 -108 20 -42
36 -81 36 -85 0 -4 6 -14 13 -20 6 -7 12 -16 12 -20 1 -13 94 -190 171 -324
109 -189 299 -476 410 -618 297 -378 600 -690 944 -971 450 -368 976 -683
1500 -899 58 -23 119 -49 137 -56 241 -105 867 -283 1122 -320 20 -3 42 -7 49
-10 8 -2 37 -7 65 -10 29 -4 55 -8 58 -10 4 -2 31 -6 60 -10 30 -3 65 -8 79
-10 14 -2 48 -7 75 -10 28 -3 66 -7 85 -10 19 -3 64 -7 100 -10 36 -3 81 -7
100 -9 202 -22 698 -22 980 0 90 7 186 16 215 20 17 2 50 7 75 10 49 5 172 22
235 31 22 3 96 17 165 31 174 34 168 32 240 49 36 9 74 17 85 20 195 38 744
223 980 329 28 12 84 37 125 55 106 46 374 185 515 267 505 294 896 599 1305
1018 154 158 216 228 388 440 95 117 342 473 396 570 9 17 21 37 26 45 39 60
133 235 210 390 200 400 370 903 455 1345 15 75 45 259 50 304 4 30 8 63 11
74 2 11 6 50 9 86 3 36 9 82 12 101 4 19 8 1924 10 4233 l3 4197 -6000 0
-6000 0 3 -4167z"/>
</g>
</svg>
